<svg xmlns="http://www.w3.org/2000/svg" viewBox="0 0 119 119"><defs><style>.cls-1{fill:#fff;}.cls-2{fill:#555;}</style></defs><g id="Layer_2" data-name="Layer 2"><g id="ARCHIVE_icon" data-name="ARCHIVE icon"><circle class="cls-1" cx="59.5" cy="59.5" r="59.5"/><path class="cls-2" d="M59.5.34a59.15,59.15,0,1,0,59.15,59.15A59.15,59.15,0,0,0,59.5.34ZM46.68,36.69a2.35,2.35,0,0,1,3.34,0l7.12,7.11V24.17a2.36,2.36,0,1,1,4.72,0V43.8L69,36.69A2.37,2.37,0,0,1,72.33,40L61.17,51.18a2.35,2.35,0,0,1-.77.51h0a2.24,2.24,0,0,1-.86.17,2.27,2.27,0,0,1-.86-.17h0a2.35,2.35,0,0,1-.77-.51L46.68,40A2.35,2.35,0,0,1,46.68,36.69ZM83.34,95.4a1.76,1.76,0,0,1-1.76,1.77H37.42a1.76,1.76,0,0,1-1.76-1.77V65.28H83.34Zm2.21-32.7H33.45v-6a1.16,1.16,0,0,1,1.16-1.16H84.39a1.16,1.16,0,0,1,1.16,1.16Z"/><rect class="cls-2" x="50.11" y="72.35" width="18.78" height="5.25" rx="2.54"/></g></g></svg>