<svg xmlns="http://www.w3.org/2000/svg" viewBox="0 0 118.29 118.29"><defs><style>.cls-1{fill:#ed730d;}</style></defs><g id="Layer_2" data-name="Layer 2"><g id="AUTOMATE_icon" data-name="AUTOMATE icon"><path class="cls-1" d="M45.18,53.82A13.48,13.48,0,1,0,58.66,67.3,13.47,13.47,0,0,0,45.18,53.82Zm0,25.06A11.59,11.59,0,1,1,56.76,67.3,11.58,11.58,0,0,1,45.18,78.88Z"/><path class="cls-1" d="M59.15,0a59.15,59.15,0,1,0,59.14,59.15A59.15,59.15,0,0,0,59.15,0ZM69.29,69.77l-4.44.51a19.83,19.83,0,0,1-1.13,4.28l3.57,2.65-2.47,4.28-4.08-1.77a19.78,19.78,0,0,1-3.14,3.13l1.77,4.09-4.28,2.47-2.65-3.58A19.15,19.15,0,0,1,48.16,87l-.51,4.43H42.71L42.2,87a19.15,19.15,0,0,1-4.28-1.14l-2.65,3.58L31,86.94l1.77-4.09a19.78,19.78,0,0,1-3.14-3.13l-4.08,1.77-2.47-4.28,3.57-2.65a19.83,19.83,0,0,1-1.13-4.28l-4.44-.51v-5l4.44-.51A19.75,19.75,0,0,1,26.64,60l-3.57-2.66,2.47-4.28,4.08,1.77a20.2,20.2,0,0,1,3.14-3.13L31,47.66l4.28-2.48,2.65,3.58a20.28,20.28,0,0,1,4.28-1.14l.51-4.43h4.94l.51,4.43a20.28,20.28,0,0,1,4.28,1.14l2.65-3.58,4.28,2.48L57.6,51.74a20.2,20.2,0,0,1,3.14,3.13l4.08-1.77,2.47,4.28L63.72,60a19.75,19.75,0,0,1,1.13,4.27l4.44.51ZM97.22,51.51l-3.37.55a13.3,13.3,0,0,1-1.23,3l2,2.77L90.44,62l-2.77-2a13.35,13.35,0,0,1-3,1.22l-.55,3.38H78.24L77.7,61.2a13.16,13.16,0,0,1-3-1.22L72,62l-4.18-4.19,2-2.77a12.84,12.84,0,0,1-1.23-3l-3.38-.55V45.6l3.38-.55a12.92,12.92,0,0,1,1.23-3l-2-2.77L72,35.13l2.77,2a13.16,13.16,0,0,1,3-1.22l.54-3.38h5.91l.55,3.38a13.35,13.35,0,0,1,3,1.22l2.77-2,4.18,4.18-2,2.77a13.38,13.38,0,0,1,1.23,3l3.37.55Z"/><path class="cls-1" d="M45.18,63.47A3.83,3.83,0,1,0,49,67.3,3.83,3.83,0,0,0,45.18,63.47Z"/><path class="cls-1" d="M81.2,42a6.61,6.61,0,1,0,6.61,6.6A6.6,6.6,0,0,0,81.2,42Z"/></g></g></svg>