<svg xmlns="http://www.w3.org/2000/svg" xmlns:xlink="http://www.w3.org/1999/xlink" viewBox="0 0 147.11 147.29"><defs><style>.cls-1{fill:none;}.cls-2{clip-path:url(#clip-path);}.cls-3{fill:#fbbc05;}.cls-4{fill:#ea4335;}.cls-5{fill:#34a853;}.cls-6{clip-path:url(#clip-path-4);}.cls-7{fill:#4285f4;}</style><clipPath id="clip-path" transform="translate(6.13 6.13)"><path class="cls-1" d="M130.25,55.17H67.43V81.22h36.16c-3.37,16.55-17.47,26.05-36.16,26.05a39.85,39.85,0,1,1,0-79.69,39,39,0,0,1,24.82,8.89l19.61-19.61a67.38,67.38,0,1,0-44.43,118c33.71,0,64.36-24.52,64.36-67.42A55.85,55.85,0,0,0,130.25,55.17Z"/></clipPath><clipPath id="clip-path-4" transform="translate(6.13 6.13)"><path class="cls-1" d="M130.25,55.35H67.43V81.4h36.16C100.22,98,86.12,107.45,67.43,107.45a39.84,39.84,0,1,1,0-79.68,39,39,0,0,1,24.82,8.88L111.86,17A67.38,67.38,0,1,0,67.43,135c33.71,0,64.36-24.51,64.36-67.42A55.85,55.85,0,0,0,130.25,55.35Z"/></clipPath></defs><g id="Layer_2" data-name="Layer 2"><g id="GOOGLE_logo" data-name="GOOGLE logo"><g class="cls-2"><path class="cls-3" d="M-6.13,107.27V27.58L46,67.43Z" transform="translate(6.13 6.13)"/></g><g class="cls-2"><path class="cls-4" d="M-6.13,27.58,46,67.43l21.46-18.7L141,36.78V-6.13H-6.13Z" transform="translate(6.13 6.13)"/></g><g class="cls-2"><path class="cls-5" d="M-6.13,107.27,85.81,36.78,110,39.84,141-6.13V141H-6.13Z" transform="translate(6.13 6.13)"/></g><g class="cls-6"><path class="cls-7" d="M141,141.16,46,67.61l-12.26-9.2L141,27.77Z" transform="translate(6.13 6.13)"/></g></g></g></svg>