<svg xmlns="http://www.w3.org/2000/svg" viewBox="0 0 118.29 118.29"><defs><style>.cls-1{fill:#ed730d;}</style></defs><g id="Layer_2" data-name="Layer 2"><g id="JOINERS_icon" data-name="JOINERS icon"><path class="cls-1" d="M67.12,50.44A18.39,18.39,0,1,0,85.5,68.83,18.41,18.41,0,0,0,67.12,50.44ZM78,70.79H69.07V79.7a2,2,0,1,1-3.91,0V70.79H56.24a2,2,0,0,1,0-3.92h8.92V58a2,2,0,1,1,3.91,0v8.91H78a2,2,0,0,1,0,3.92Z"/><path class="cls-1" d="M59.15,0a59.15,59.15,0,1,0,59.14,59.15A59.15,59.15,0,0,0,59.15,0ZM44.77,27.16a9.16,9.16,0,1,1-9.15,9.16A9.16,9.16,0,0,1,44.77,27.16Zm22.35,64A22.22,22.22,0,0,1,45.46,63.58H28.88A16.13,16.13,0,0,1,44.77,47.21a15.51,15.51,0,0,1,9.6,3.34A22.3,22.3,0,1,1,67.12,91.14Z"/></g></g></svg>