<svg xmlns="http://www.w3.org/2000/svg" viewBox="0 0 119 119"><defs><style>.cls-1{fill:#fff;}.cls-2{fill:#e30817;}</style></defs><g id="Layer_2" data-name="Layer 2"><g id="LEAVERS_icon" data-name="LEAVERS icon"><circle class="cls-1" cx="59.5" cy="59.5" r="59.5"/><path class="cls-2" d="M59.5.35A59.15,59.15,0,1,0,118.65,59.5,59.15,59.15,0,0,0,59.5.35ZM89.63,75.44H36.89A15.61,15.61,0,1,1,44,45.93a21.59,21.59,0,0,1,42.12,6.71c0,.16,0,.31,0,.47a11.45,11.45,0,1,1,3.58,22.33Z"/><path class="cls-2" d="M73.05,55.7H50.54L56.25,50a1.9,1.9,0,1,0-2.68-2.68l-9,9a1.68,1.68,0,0,0-.24.29.25.25,0,0,1,0,.07,2,2,0,0,0-.13.25s0,.07,0,.11,0,.16-.07.25a1.5,1.5,0,0,0,0,.37,1.64,1.64,0,0,0,0,.38c0,.08,0,.16.07.24s0,.08,0,.11a1.65,1.65,0,0,0,.14.26l0,.07a1.61,1.61,0,0,0,.24.28l9,9a1.9,1.9,0,0,0,2.68-2.68L50.54,59.5H73.05a1.9,1.9,0,1,0,0-3.8Z"/></g></g></svg>