<svg xmlns="http://www.w3.org/2000/svg" viewBox="0 0 118.29 118.29"><defs><style>.cls-1{fill:#e30817;}</style></defs><g id="Layer_2" data-name="Layer 2"><g id="LEAVERS_icon" data-name="LEAVERS icon"><path class="cls-1" d="M59.15,0a59.15,59.15,0,1,0,59.14,59.15A59.15,59.15,0,0,0,59.15,0ZM89.28,75.09H36.54A15.61,15.61,0,1,1,43.6,45.58a21.59,21.59,0,0,1,42.12,6.7c0,.16,0,.32,0,.47a11.46,11.46,0,1,1,3.58,22.34Z"/><path class="cls-1" d="M72.7,55.35H50.18l5.72-5.72a1.9,1.9,0,0,0-1.34-3.24,1.93,1.93,0,0,0-1.35.56l-9,8.95a2.17,2.17,0,0,0-.24.29.3.3,0,0,0,0,.08,1.19,1.19,0,0,0-.13.25.36.36,0,0,0,0,.11,1.09,1.09,0,0,0-.07.24,1.64,1.64,0,0,0,0,.38,1.5,1.5,0,0,0,0,.37,1,1,0,0,0,.07.25.49.49,0,0,0,0,.11,1.19,1.19,0,0,0,.13.25l0,.07a1.68,1.68,0,0,0,.24.29l9,9a1.9,1.9,0,0,0,2.69-2.69l-5.72-5.71H72.7a1.9,1.9,0,0,0,0-3.8Z"/></g></g></svg>