<svg xmlns="http://www.w3.org/2000/svg" viewBox="0 0 119 119"><defs><style>.cls-1{fill:#fff;}.cls-2{fill:#128cf2;}</style></defs><g id="Layer_2" data-name="Layer 2"><g id="MIGRATE_icon" data-name="MIGRATE icon"><circle class="cls-1" cx="59.5" cy="59.5" r="59.5"/><path class="cls-2" d="M73.15,59.17s0-.08,0-.11A2.1,2.1,0,0,0,73,58.8a.25.25,0,0,1,0-.07,2.17,2.17,0,0,0-.24-.29l-9-8.95a1.9,1.9,0,0,0-2.68,2.68l5.71,5.72H44.26a1.9,1.9,0,0,0,0,3.8H66.78L61.06,67.4a1.9,1.9,0,0,0,1.34,3.24,1.88,1.88,0,0,0,1.34-.55l9-9a1.68,1.68,0,0,0,.24-.29.25.25,0,0,1,0-.07,1.19,1.19,0,0,0,.13-.25s0-.08,0-.11,0-.16.07-.25a1.55,1.55,0,0,0,0-.37,1.58,1.58,0,0,0,0-.38C73.2,59.33,73.17,59.25,73.15,59.17Z"/><path class="cls-2" d="M59.5.35A59.15,59.15,0,1,0,118.65,59.5,59.15,59.15,0,0,0,59.5.35ZM87.94,77.63H35.2a15.61,15.61,0,1,1,7.06-29.51,21.59,21.59,0,0,1,42.12,6.7c0,.16,0,.32,0,.47a11.46,11.46,0,1,1,3.58,22.34Z"/></g></g></svg>