<svg xmlns="http://www.w3.org/2000/svg" viewBox="0 0 118.29 118.29"><defs><style>.cls-1{fill:#128cf2;}</style></defs><g id="Layer_2" data-name="Layer 2"><g id="MIGRATE_icon" data-name="MIGRATE icon"><path class="cls-1" d="M72.79,58.81l0-.1a1.59,1.59,0,0,0-.14-.26l0-.07a2.17,2.17,0,0,0-.24-.29l-9-9a1.9,1.9,0,1,0-2.68,2.69l5.71,5.72H43.91a1.9,1.9,0,1,0,0,3.79H66.42l-5.71,5.72a1.9,1.9,0,0,0,2.68,2.69l9-9a2.17,2.17,0,0,0,.24-.29l0-.07a2.15,2.15,0,0,0,.14-.26l0-.1c0-.09.06-.17.08-.25a1.78,1.78,0,0,0,0-.75A1.83,1.83,0,0,0,72.79,58.81Z"/><path class="cls-1" d="M59.15,0a59.15,59.15,0,1,0,59.14,59.15A59.15,59.15,0,0,0,59.15,0ZM87.59,77.28H34.85a15.61,15.61,0,1,1,7.06-29.51A21.59,21.59,0,0,1,84,54.47c0,.16,0,.31,0,.47a11.46,11.46,0,1,1,3.58,22.34Z"/></g></g></svg>