<svg xmlns="http://www.w3.org/2000/svg" viewBox="0 0 118.29 118.29"><defs><style>.cls-1{fill:#ed730d;}</style></defs><g id="Layer_2" data-name="Layer 2"><g id="MOVERS_icon" data-name="MOVERS icon"><path class="cls-1" d="M76.82,60.32l-.08-.09-.13-.15A.48.48,0,0,0,76.5,60l-.15-.12-.11-.06-.18-.09-.12,0-.19,0-.15,0h-.18l-.18,0h-.15l-.06,0-.25.08,0,0-.26.14h0l-6.06,4.2a1.69,1.69,0,0,0,1.92,2.77l2.79-1.94a11.2,11.2,0,0,1-20.44,1.71,1.69,1.69,0,1,0-3,1.62,14.59,14.59,0,0,0,26.71-2.58l1.81,2.62A1.69,1.69,0,0,0,81,66.38Z"/><path class="cls-1" d="M59.15,0a59.15,59.15,0,1,0,59.14,59.15A59.15,59.15,0,0,0,59.15,0ZM87.59,81.21H34.85A15.61,15.61,0,1,1,41.91,51.7,21.59,21.59,0,0,1,84,58.4c0,.16,0,.32,0,.48a11.19,11.19,0,0,1,3.58-.58,11.46,11.46,0,1,1,0,22.91Z"/><path class="cls-1" d="M49.64,63h0a1.55,1.55,0,0,0,.43-.07l.11,0a1.5,1.5,0,0,0,.4-.2h0l6.06-4.21a1.68,1.68,0,1,0-1.92-2.76L52,57.63a11.21,11.21,0,0,1,20.44-1.71,1.68,1.68,0,0,0,3-1.61,14.58,14.58,0,0,0-26.71,2.57l-1.82-2.61a1.68,1.68,0,1,0-2.76,1.92l4.18,6h0s0,0,0,0a1.79,1.79,0,0,0,.23.25l.09.08.21.14.11.06a1.14,1.14,0,0,0,.26.09l.09,0a1.5,1.5,0,0,0,.37,0Z"/></g></g></svg>