<svg xmlns="http://www.w3.org/2000/svg" viewBox="0 0 119 119"><defs><style>.cls-1{fill:#fff;}.cls-2{fill:#fabd14;}</style></defs><g id="Layer_2" data-name="Layer 2"><g id="STARTERS_icon" data-name="STARTERS icon"><circle class="cls-1" cx="59.5" cy="59.5" r="59.5"/><path class="cls-2" d="M59.15.35A59.15,59.15,0,1,0,118.29,59.5,59.15,59.15,0,0,0,59.15.35Zm0,24.8a8.38,8.38,0,1,1-8.38,8.38A8.38,8.38,0,0,1,59.15,25.15Zm0,18.35a14.77,14.77,0,0,1,14.55,15H44.6A14.76,14.76,0,0,1,59.15,43.5ZM97.77,84.88l-8.46,8.45a1.75,1.75,0,0,1-1.26.52,1.78,1.78,0,0,1-1.27-.52l-8.45-8.45a1.79,1.79,0,0,1,2.53-2.53l5.4,5.39V82.56a7.4,7.4,0,0,0-7.4-7.39H60.94V87.74l5.39-5.39a1.79,1.79,0,0,1,2.53,2.53l-8.45,8.45a1.75,1.75,0,0,1-1.26.52,1.78,1.78,0,0,1-1.27-.52l-8.45-8.45A1.79,1.79,0,0,1,52,82.35l5.4,5.39V75.17H39.43A7.4,7.4,0,0,0,32,82.56v5.18l5.39-5.39A1.79,1.79,0,0,1,40,84.88l-8.45,8.45a1.75,1.75,0,0,1-1.26.52A1.78,1.78,0,0,1,29,93.33l-8.45-8.45a1.79,1.79,0,0,1,2.53-2.53l5.4,5.39V82.56a11,11,0,0,1,11-11H57.36V64.29a1.79,1.79,0,1,1,3.58,0v7.29H78.86a11,11,0,0,1,11,11v5.18l5.39-5.39a1.79,1.79,0,0,1,2.54,2.53Z"/></g></g></svg>