<svg xmlns="http://www.w3.org/2000/svg" viewBox="0 0 118.29 118.29"><defs><style>.cls-1{fill:#fabd14;}</style></defs><g id="Layer_2" data-name="Layer 2"><g id="STARTERS_icon" data-name="STARTERS icon"><path class="cls-1" d="M59.15,0a59.15,59.15,0,1,0,59.14,59.15A59.15,59.15,0,0,0,59.15,0Zm0,24.79a8.39,8.39,0,1,1-8.38,8.39A8.39,8.39,0,0,1,59.15,24.79Zm0,18.35a14.78,14.78,0,0,1,14.55,15H44.6A14.77,14.77,0,0,1,59.15,43.14ZM97.77,84.53,89.31,93a1.8,1.8,0,0,1-1.26.52A1.82,1.82,0,0,1,86.78,93l-8.45-8.45A1.79,1.79,0,1,1,80.86,82l5.4,5.4V82.21a7.41,7.41,0,0,0-7.4-7.4H60.94V87.39L66.33,82a1.79,1.79,0,1,1,2.53,2.54L60.41,93a1.8,1.8,0,0,1-1.26.52A1.82,1.82,0,0,1,57.88,93l-8.45-8.45A1.79,1.79,0,1,1,52,82l5.4,5.4V74.81H39.43A7.41,7.41,0,0,0,32,82.21v5.18L37.43,82A1.79,1.79,0,1,1,40,84.53L31.51,93a1.8,1.8,0,0,1-1.26.52A1.82,1.82,0,0,1,29,93l-8.45-8.45A1.79,1.79,0,1,1,23.06,82l5.4,5.4V82.21a11,11,0,0,1,11-11H57.36v-7.3a1.79,1.79,0,0,1,3.58,0v7.3H78.86a11,11,0,0,1,11,11v5.18L95.23,82a1.8,1.8,0,0,1,2.54,0A1.82,1.82,0,0,1,97.77,84.53Z"/></g></g></svg>