<svg xmlns="http://www.w3.org/2000/svg" viewBox="0 0 102.22 55.8"><defs><style>.cls-1{fill:#939393;}</style></defs><g id="Layer_2" data-name="Layer 2"><g id="DOTTED_ARROW" data-name="DOTTED ARROW"><path class="cls-1" d="M72,1A3.28,3.28,0,1,0,76.6,1l0,0A3.27,3.27,0,0,0,72,1Z"/><path class="cls-1" d="M88.4,22A3.27,3.27,0,0,0,93,17.39l0,0a3.25,3.25,0,0,0-4.6,0A3.3,3.3,0,0,0,88.4,22Z"/><path class="cls-1" d="M80.19,13.81a3.27,3.27,0,0,0,4.62-4.63l0,0a3.25,3.25,0,0,0-4.6,0A3.3,3.3,0,0,0,80.19,13.81Z"/><path class="cls-1" d="M80.15,46.65a3.26,3.26,0,0,0,4.62,0l0,0a3.19,3.19,0,0,0,1-2.28,3.24,3.24,0,0,0-1-2.32,3.28,3.28,0,0,0-4.64,4.64Z"/><path class="cls-1" d="M88.36,38.44a3.26,3.26,0,0,0,4.62,0l0,0a3.19,3.19,0,0,0,1-2.28,3.24,3.24,0,0,0-1-2.32,3.28,3.28,0,0,0-4.64,4.64Z"/><path class="cls-1" d="M72,54.87a3.26,3.26,0,0,0,4.62-.06l0,0a3.23,3.23,0,0,0,.93-2.27,3.28,3.28,0,0,0-5.64-2.27A3.26,3.26,0,0,0,72,54.87Z"/><path class="cls-1" d="M24.61,52.51a3.27,3.27,0,0,0,1,2.32l0,0a3.27,3.27,0,1,0-1-2.34Z"/><path class="cls-1" d="M16.4,44.3a3.27,3.27,0,0,0,1,2.32l0,0a3.24,3.24,0,0,0,4.6,0A3.3,3.3,0,0,0,22,42,3.27,3.27,0,0,0,16.4,44.3Z"/><path class="cls-1" d="M8.19,36.09a3.27,3.27,0,0,0,1,2.32l0,0a3.25,3.25,0,0,0,4.6,0,3.3,3.3,0,0,0,0-4.65,3.27,3.27,0,0,0-5.58,2.31Z"/><path class="cls-1" d="M17.36,9.19a3.19,3.19,0,0,0-.95,2.28,3.3,3.3,0,1,0,1-2.32Z"/><path class="cls-1" d="M9.14,17.4a3.22,3.22,0,0,0-.94,2.28,3.3,3.3,0,1,0,1-2.32Z"/><path class="cls-1" d="M30.18.93A3.28,3.28,0,0,0,25.55,1l0,0A3.27,3.27,0,1,0,30.18.93Z"/><path class="cls-1" d="M35.84,27.9a3.27,3.27,0,0,0,3.27,3.27h.06a3.27,3.27,0,0,0,0-6.54h-.06A3.26,3.26,0,0,0,35.84,27.9Z"/><path class="cls-1" d="M0,27.9a3.29,3.29,0,1,0,3.3-3.27H3.24A3.25,3.25,0,0,0,0,27.9Z"/><path class="cls-1" d="M47.82,27.9a3.29,3.29,0,0,0,6.57,0,3.26,3.26,0,0,0-3.27-3.27h-.06A3.25,3.25,0,0,0,47.82,27.9Z"/><path class="cls-1" d="M23.91,27.9a3.29,3.29,0,0,0,6.57,0,3.26,3.26,0,0,0-3.27-3.27h-.06A3.25,3.25,0,0,0,23.91,27.9Z"/><path class="cls-1" d="M11.93,27.9a3.27,3.27,0,0,0,3.27,3.27h.06a3.27,3.27,0,0,0,0-6.54H15.2A3.26,3.26,0,0,0,11.93,27.9Z"/><path class="cls-1" d="M59.78,27.9a3.29,3.29,0,1,0,3.3-3.27H63A3.24,3.24,0,0,0,59.78,27.9Z"/><path class="cls-1" d="M95.61,27.9a3.28,3.28,0,0,0,3.27,3.27h.06a3.27,3.27,0,1,0,0-6.54h-.06A3.27,3.27,0,0,0,95.61,27.9Z"/><path class="cls-1" d="M71.7,27.9A3.28,3.28,0,0,0,75,31.17H75a3.27,3.27,0,0,0,0-6.54H75A3.27,3.27,0,0,0,71.7,27.9Z"/><path class="cls-1" d="M83.69,27.9A3.29,3.29,0,1,0,87,24.63h-.06A3.24,3.24,0,0,0,83.69,27.9Z"/></g></g></svg>